<svg width="24" height="25" viewBox="0 0 24 25" fill="none" xmlns="http://www.w3.org/2000/svg">
<path d="M12 2.75C10.0716 2.75 8.18657 3.32183 6.58319 4.39317C4.97982 5.46451 3.73013 6.98726 2.99218 8.76884C2.25422 10.5504 2.06114 12.5108 2.43735 14.4021C2.81355 16.2934 3.74215 18.0307 5.10571 19.3943C6.46928 20.7579 8.20656 21.6865 10.0979 22.0627C11.9892 22.4389 13.9496 22.2458 15.7312 21.5078C17.5127 20.7699 19.0355 19.5202 20.1068 17.9168C21.1782 16.3134 21.75 14.4284 21.75 12.5C21.7473 9.91498 20.7192 7.43661 18.8913 5.60872C17.0634 3.78084 14.585 2.75273 12 2.75ZM11.625 7.25C11.8475 7.25 12.065 7.31598 12.25 7.4396C12.435 7.56321 12.5792 7.73891 12.6644 7.94448C12.7495 8.15005 12.7718 8.37625 12.7284 8.59448C12.685 8.81271 12.5778 9.01316 12.4205 9.1705C12.2632 9.32783 12.0627 9.43498 11.8445 9.47838C11.6263 9.52179 11.4001 9.49951 11.1945 9.41436C10.9889 9.32922 10.8132 9.18502 10.6896 9.00002C10.566 8.81501 10.5 8.5975 10.5 8.375C10.5 8.07663 10.6185 7.79048 10.8295 7.5795C11.0405 7.36853 11.3266 7.25 11.625 7.25ZM12.75 17.75C12.3522 17.75 11.9706 17.592 11.6893 17.3107C11.408 17.0294 11.25 16.6478 11.25 16.25V12.5C11.0511 12.5 10.8603 12.421 10.7197 12.2803C10.579 12.1397 10.5 11.9489 10.5 11.75C10.5 11.5511 10.579 11.3603 10.7197 11.2197C10.8603 11.079 11.0511 11 11.25 11C11.6478 11 12.0294 11.158 12.3107 11.4393C12.592 11.7206 12.75 12.1022 12.75 12.5V16.25C12.9489 16.25 13.1397 16.329 13.2803 16.4697C13.421 16.6103 13.5 16.8011 13.5 17C13.5 17.1989 13.421 17.3897 13.2803 17.5303C13.1397 17.671 12.9489 17.75 12.75 17.75Z" fill="#F2F2F1"/>
</svg>
