<svg width="24" height="25" viewBox="0 0 24 25" fill="none" xmlns="http://www.w3.org/2000/svg">
<path d="M20.1561 21.1109C20.0915 21.2286 19.9966 21.3267 19.8812 21.3951C19.7657 21.4636 19.6341 21.4998 19.4999 21.5H14.9999C14.8736 21.5 14.7495 21.4681 14.6389 21.4073C14.5282 21.3465 14.4348 21.2587 14.3671 21.1522L10.5711 15.1869L5.05488 21.2544C4.9204 21.3988 4.73442 21.4845 4.53723 21.4927C4.34005 21.5009 4.14757 21.4311 4.00151 21.2984C3.85546 21.1657 3.76761 20.9807 3.75701 20.7836C3.74641 20.5866 3.81391 20.3933 3.94488 20.2456L9.73581 13.8706L3.86706 4.65313C3.79478 4.53973 3.75432 4.40898 3.74991 4.27458C3.74551 4.14018 3.77732 4.00707 3.84201 3.88918C3.90671 3.77129 4.00191 3.67296 4.11765 3.60449C4.23338 3.53603 4.3654 3.49993 4.49988 3.5H8.99988C9.1261 3.50004 9.25028 3.53194 9.3609 3.59274C9.47152 3.65353 9.565 3.74127 9.63269 3.84781L13.4286 9.81312L18.9449 3.74562C19.0793 3.60117 19.2653 3.51555 19.4625 3.50731C19.6597 3.49907 19.8522 3.56888 19.9982 3.70161C20.1443 3.83435 20.2321 4.01929 20.2427 4.21636C20.2533 4.41343 20.1858 4.60674 20.0549 4.75438L14.2639 11.1247L20.1327 20.3478C20.2046 20.4613 20.2447 20.5919 20.2488 20.7262C20.2529 20.8604 20.2209 20.9933 20.1561 21.1109Z" fill="#F2F2F1"/>
</svg>
